<svg id="Layer_3" height="512" viewBox="0 0 64 64" width="512" xmlns="http://www.w3.org/2000/svg" data-name="Layer 3"><path d="m57.293 50.707-4-4a1 1 0 0 1 -.293-.707v-9h2v8.586l3.707 3.707z" fill="#e2e7f6"/><path d="m49 37h2v17h-2z" fill="#e2e7f6"/><path d="m5.707 50.707-1.414-1.414 3.707-3.707v-9.586h2v10a1 1 0 0 1 -.293.707z" fill="#e2e7f6"/><path d="m12 37h2v17h-2z" fill="#e2e7f6"/><path d="m12 38h40a9.995 9.995 0 0 0 4.983-18.662c0-.113.017-.224.017-.338a11.96 11.96 0 0 0 -14.989-11.61 11.992 11.992 0 0 0 -20.022 0 11.96 11.96 0 0 0 -14.989 11.61c0 .114.014.225.017.338a9.995 9.995 0 0 0 4.983 18.662z" fill="#c0dafc"/><path d="m24 12h16v16h-16z" fill="#3b5892"/><path d="m24 12h12v12h-12z" fill="#4c6cb5"/><path d="m28 16h8v8h-8z" fill="#78a0d4"/><path d="m33 20v-4h-5v6h3a2 2 0 0 0 2-2z" fill="#c0dafc"/><g fill="#78a0d4"><path d="m25 8h2v4h-2z"/><path d="m29 8h2v4h-2z"/><path d="m33 8h2v4h-2z"/><path d="m37 8h2v4h-2z"/><path d="m25 28h2v4h-2z"/><path d="m29 28h2v4h-2z"/><path d="m33 28h2v4h-2z"/><path d="m37 28h2v4h-2z"/><path d="m40 13h4v2h-4z"/><path d="m40 17h4v2h-4z"/><path d="m40 21h4v2h-4z"/><path d="m40 25h4v2h-4z"/><path d="m20 13h4v2h-4z"/><path d="m20 17h4v2h-4z"/><path d="m20 21h4v2h-4z"/><path d="m20 25h4v2h-4z"/></g><path d="m46 51v-6h-2.393a11.916 11.916 0 0 0 -1.278-3.086l1.692-1.692-4.243-4.243-1.692 1.692a11.916 11.916 0 0 0 -3.086-1.278v-2.393h-6v2.393a11.916 11.916 0 0 0 -3.086 1.278l-1.692-1.692-4.243 4.243 1.692 1.692a11.916 11.916 0 0 0 -1.278 3.086h-2.393v6h2.393a11.916 11.916 0 0 0 1.278 3.086l-1.692 1.692 4.243 4.243 1.692-1.692a11.916 11.916 0 0 0 3.086 1.278v2.393h6v-2.393a11.916 11.916 0 0 0 3.086-1.278l1.692 1.692 4.243-4.243-1.692-1.692a11.916 11.916 0 0 0 1.278-3.086z" fill="#939393"/><circle cx="32" cy="48" fill="#fff" r="6"/><circle cx="59" cy="51" fill="#559b2d" r="2"/><circle cx="50" cy="55" fill="#559b2d" r="2"/><circle cx="4" cy="51" fill="#559b2d" r="2"/><circle cx="13" cy="55" fill="#559b2d" r="2"/></svg>