<svg xmlns="http://www.w3.org/2000/svg" data-name="Layer 1" width="595.246" height="563.116">
  <path d="M466.312 442.139a6.823 6.823 0 0 0 6.845-1.255l10.832-9.447a6.824 6.824 0 0 0 .657-9.618l-78.737-90.28a6.824 6.824 0 0 0-9.618-.658l-10.832 9.448a6.824 6.824 0 0 0-.657 9.617l78.737 90.281a6.776 6.776 0 0 0 2.773 1.912ZM358.096 342.794a6.85 6.85 0 0 0 2.088-.328 6.77 6.77 0 0 0 3.984-3.366l6.586-12.775a6.823 6.823 0 0 0-2.935-9.182l-106.473-54.895a6.824 6.824 0 0 0-9.183 2.935l-6.586 12.775a6.823 6.823 0 0 0 2.935 9.182l106.474 54.895a6.773 6.773 0 0 0 3.11.76Z" fill="#3FB27F"/>
  <path d="M360.016 345.885a6.837 6.837 0 0 0 6.106-3.765l6.448-12.845a6.804 6.804 0 0 0 .528-4.684 6.886 6.886 0 0 0-.15-.52c-.13-.392-.271-1.004-.435-1.713-.523-2.26-1.173-5.071-2.498-5.737l-46.785-28.357a6.813 6.813 0 0 0-9.164 2.976l-.02.04-11.8 24.324a6.823 6.823 0 0 0 3.036 9.145l51.73 20.423a6.677 6.677 0 0 0 3.004.713Z" fill="#32475B"/>
  <circle cx="379.437" cy="230.723" r="52.118" fill="#3FB27F"/>
  <path d="M389.596 561.669h14.373a6.824 6.824 0 0 0 6.816-6.817v-121.74a6.824 6.824 0 0 0-6.816-6.816h-14.373a6.824 6.824 0 0 0-6.817 6.817v121.74a6.824 6.824 0 0 0 6.817 6.816Z" fill="#3FB27F"/>
  <path d="M327.669 505.009a6.813 6.813 0 0 0 5.554-2.85l69.674-97.445a6.824 6.824 0 0 0-1.58-9.51l-11.692-8.36a6.823 6.823 0 0 0-9.51 1.58l-69.674 97.446a6.824 6.824 0 0 0 1.58 9.51l11.692 8.36a6.78 6.78 0 0 0 3.956 1.269Z" fill="#3FB27F"/>
  <path d="M346.153 559.86a9.384 9.384 0 0 0 4.117-1.03l12.867-6.406c3.364-1.676 5.218-4.813 4.132-6.994l-33.16-66.608c-1.087-2.18-4.707-2.592-8.072-.917l-12.867 6.405a9.074 9.074 0 0 0-3.688 3.207 3.852 3.852 0 0 0-.445 3.787l33.161 66.608c.636 1.277 2.141 1.948 3.955 1.948Z" fill="#3FB27F"/>
  <path d="M408.705 383.132a6.837 6.837 0 0 0 7.139-1.545l19.499-18.71a6.816 6.816 0 0 0 .078-9.638l-.005-.006-41.444-35.83c-1.012-1.031-3.888-.782-6.198-.584-.725.062-1.351.116-1.765.113a6.806 6.806 0 0 0-.54.018 6.805 6.805 0 0 0-4.295 1.945l-10.234 10.09a6.825 6.825 0 0 0-.069 9.64l35.304 42.862a6.873 6.873 0 0 0 2.53 1.645ZM354.374 250.04l.055-1.948c-3.624-.1-6.818-.328-9.218-2.082a5.987 5.987 0 0 1-2.32-4.41 3.422 3.422 0 0 1 1.123-2.818c1.594-1.346 4.157-.91 6.026-.053l1.612.739-3.09-22.583-1.93.264 2.628 19.21c-2.539-.747-4.891-.425-6.503.936a5.328 5.328 0 0 0-1.812 4.374 7.92 7.92 0 0 0 3.117 5.914c3.084 2.254 7.092 2.367 10.312 2.457ZM326.6 218.806h10.489v1.948H326.6zM359.709 218.806h10.489v1.948h-10.489z" fill="#32475B"/>
  <path d="m307.372 488.257 56.853-163.86c-1.835-2.481-3.066-6.971-3.07-12.117v-4.359c.005-7.82 2.836-14.156 6.331-14.165h21.424c3.494.009 6.325 6.346 6.33 14.165v4.359c-.004 5.667-1.495 10.542-3.644 12.807l28.861 109.17a6.316 6.316 0 0 1-5.482 9.495l-102.12 54a6.33 6.33 0 0 1-5.483-9.495Z" fill="#32475B"/>
  <path d="M203.127 284.475a43.215 43.215 0 0 1-20.418-25.655 133.444 133.444 0 0 1-122.788-13.679c-61.056-41.074-77.312-124.164-36.238-185.22s124.165-77.311 185.22-36.238c60.904 40.973 77.23 123.751 36.544 184.764a43.725 43.725 0 0 1 20.898 26.368 43.507 43.507 0 0 1-30.157 53.631 43.245 43.245 0 0 1-33.06-3.97Z" fill="#fff"/>
  <path d="M207.982 273.413a32.29 32.29 0 0 1-14.061-19.045 10.858 10.858 0 0 0-14.426-7.177l-.662.26a121.454 121.454 0 1 1 56.352-45.246l-.395.587a10.861 10.861 0 0 0 3.892 15.641 32.506 32.506 0 0 1 16.111 19.633 31.515 31.515 0 0 1-4.827 26.984 30.983 30.983 0 0 1-14.296 10.949 31.861 31.861 0 0 1-11.253 2.066 31.438 31.438 0 0 1-16.435-4.652Z" fill="#f0f0f0"/>
  <path d="M202.637 285.347a45.45 45.45 0 0 1-4.394-2.814c-15.153-10.994-33.032-16.086-50.34-14.342a134.744 134.744 0 0 1-88.54-22.22C-2.151 204.59-18.53 120.876 22.853 59.363c41.383-61.514 125.095-77.892 186.61-36.51a134.687 134.687 0 0 1 49.816 161.459 43.588 43.588 0 0 0 3.066 38.926 44.488 44.488 0 0 1-25.544 66.073 44.78 44.78 0 0 1-12.416 1.768 44.488 44.488 0 0 1-21.748-5.732ZM25.343 61.037A131.454 131.454 0 0 0 182.49 256.76l1.546-.608.447 1.6a41.507 41.507 0 0 0 79.936-22.396 41.707 41.707 0 0 0-20.4-25.407l-1.463-.783.926-1.378a131.454 131.454 0 0 0-218.14-146.75Z" fill="#32475B"/>
  <circle cx="189.248" cy="134.51" r="15.575" fill="#3FB27F"/>
  <circle cx="136.108" cy="134.51" r="15.575" fill="#3FB27F"/>
  <circle cx="82.968" cy="134.51" r="15.575" fill="#3FB27F"/>
  <path d="M402.948 207.949c-1.65-3.643-5.513-5.154-9.316-5.315-4.88-.207-9.377 1.89-13.792 3.704-4.56 1.872-9.228 3.4-14.222 3.015a26.035 26.035 0 0 1-12.398-4.29 24.024 24.024 0 0 1-10.832-22.213c.8-8.622 5.839-16.895 13.865-20.544a25.766 25.766 0 0 1 27.823 4.369l-2.56 1.06c-1.066-10.64 4.721-20.76 12.84-27.253 8.564-6.85 19.519-10.81 30.258-12.568a67.194 67.194 0 0 1 33.01 2.484A65.418 65.418 0 0 1 481.26 145.1a67.582 67.582 0 0 1 20.457 52.58 74.776 74.776 0 0 1-8.038 29.494 77.007 77.007 0 0 1-18.815 23.43c-15.425 13.144-34.54 20.909-53.377 27.773q-3.515 1.281-7.041 2.533c-1.822.65-2.606-2.248-.798-2.893 18.172-6.48 36.67-13.214 52.537-24.447a81.26 81.26 0 0 0 20.205-20.007 71.583 71.583 0 0 0 11.251-27.17 64.457 64.457 0 0 0-33.506-69.947 60.611 60.611 0 0 0-29-6.518 70.737 70.737 0 0 0-31.33 7.954c-8.976 4.747-16.797 12.346-18.939 22.6a23.783 23.783 0 0 0-.35 7.252c.137 1.372-1.69 1.873-2.561 1.061a22.74 22.74 0 0 0-23.074-4.355c-7.7 2.854-12.814 10.529-13.509 18.582a21.153 21.153 0 0 0 10.554 20.198 22.577 22.577 0 0 0 11.616 3.197c4.775-.046 9.175-2.022 13.514-3.805 4.637-1.906 9.342-3.494 14.416-2.808 4.166.564 8.263 2.649 10.067 6.63.79 1.745-1.795 3.272-2.59 1.514Z" fill="#32475B"/>
  <path d="M146.761 563.116h447.294a1.19 1.19 0 0 0 0-2.381H146.761a1.19 1.19 0 0 0 0 2.381Z" fill="#3f3d56"/>
</svg>
