<svg id="Capa_1" enable-background="new 0 0 495.002 495.002" height="512" viewBox="0 0 495.002 495.002" width="512" xmlns="http://www.w3.org/2000/svg" xmlns:xlink="http://www.w3.org/1999/xlink"><linearGradient id="SVGID_1_" gradientUnits="userSpaceOnUse" x1="617.538" x2="-122.462" y1="99.768" y2="417.768"><stop offset=".007" stop-color="#9494ff"/><stop offset=".992" stop-color="#ffe8dc" stop-opacity="0"/></linearGradient><path d="m403.344 194.486c1.003-8.034 1.494-16.244 1.435-24.593-.658-93.225-70.63-169.299-156.259-169.889-87.333-.603-158.302 76.292-158.302 171.233 0 7.886.49 15.647 1.44 23.249 3.846 30.805-9.404 61.246-33.493 77.94-33.873 23.474-54.164 53.372-54.164 85.93 0 75.468 109.019 136.646 243.5 136.646s243.5-61.179 243.5-136.646c0-32.559-20.292-62.457-54.165-85.931-24.089-16.693-37.338-47.134-33.492-77.939z" fill="url(#SVGID_1_)"/><path d="m330.888 459.502h-191.774c-12.208 0-22.105-9.897-22.105-22.105v-375.79c0-12.208 9.897-22.105 22.105-22.105h191.775c12.208 0 22.105 9.897 22.105 22.105v375.789c0 12.209-9.897 22.106-22.106 22.106z" fill="#00c" opacity=".1"/><path d="m365.444 128.092h-21.522v-66.913h21.522c3.803 0 6.885 3.083 6.885 6.885v53.143c0 3.803-3.082 6.885-6.885 6.885z" fill="#6c6cff"/><path d="m101.408 196.945h24.672v-135.766h-24.672c-3.803 0-3.735 3.083-3.735 6.885v121.995c0 3.803-.067 6.886 3.735 6.886z" fill="#6c6cff"/><path d="m330.888 438.502h-191.774c-12.208 0-22.105-9.897-22.105-22.105v-375.79c0-12.208 9.897-22.105 22.105-22.105h191.775c12.208 0 22.105 9.897 22.105 22.105v375.789c0 12.209-9.897 22.106-22.106 22.106z" fill="#ff9d33"/><path d="m117.012 70.624h235.977v315.756h-235.977z" fill="#fff"/><path d="m352.989 70.624v120.046c-10.752-.357-20.58-4.378-28.298-10.826-8.106 6.773-18.532 10.857-29.893 10.857s-21.788-4.085-29.904-10.857c-8.106 6.773-18.532 10.857-29.893 10.857s-21.787-4.085-29.893-10.857c-8.117 6.773-18.543 10.857-29.904 10.857s-21.788-4.085-29.893-10.857c-7.718 6.447-17.546 10.469-28.298 10.826v-120.046z" fill="#ebebff"/><path d="" style="fill:none;stroke:#00c;stroke-width:10;stroke-linecap:round;stroke-linejoin:round;stroke-miterlimit:10"/><path d="" style="fill:none;stroke:#00c;stroke-width:10;stroke-linecap:round;stroke-linejoin:round;stroke-miterlimit:10"/><path d="m145.324 120.259h-59.797l31.5-49.64h47.197z" fill="#ffb3b3"/><path d="m205.102 120.269h-59.797l18.9-49.64h47.197z" fill="#ff4d4d"/><path d="m264.9 120.269h-59.798l6.3-49.64h47.198z" fill="#ffb3b3"/><path d="m324.697 120.269h-59.797l-6.3-49.64h47.197z" fill="#ff4d4d"/><path d="m384.494 120.269h-59.797l-18.9-49.64h47.197z" fill="#ffb3b3"/><path d="m115.407 173.902c-16.513 0-29.899-13.386-29.899-29.899v-23.735h59.797v23.735c0 16.513-13.386 29.899-29.898 29.899z" fill="#ff4d4d"/><path d="m175.204 173.902c-16.513 0-29.899-13.386-29.899-29.899v-23.735h59.797v23.735c0 16.513-13.386 29.899-29.898 29.899z" fill="#ffb3b3"/><path d="m235.001 173.902c-16.513 0-29.899-13.386-29.899-29.899v-23.735h59.798v23.735c0 16.513-13.386 29.899-29.899 29.899z" fill="#ff4d4d"/><path d="m294.798 173.902c-16.513 0-29.899-13.386-29.899-29.899v-23.735h59.797v23.735c.001 16.513-13.385 29.899-29.898 29.899z" fill="#ffb3b3"/><path d="m354.595 173.902c-16.513 0-29.899-13.386-29.899-29.899v-23.735h59.797v23.735c.001 16.513-13.385 29.899-29.898 29.899z" fill="#ff4d4d"/><path d="m389.488 120.203c-.012-.901-.289-1.851-.773-2.614l-11.386-17.942v-31.583c0-6.554-5.331-11.885-11.885-11.885h-7.451v-15.572c0-14.946-12.159-27.105-27.104-27.105h-191.776c-14.946 0-27.105 12.16-27.105 27.105v15.571h-10.6c-3.777 0-6.669 1.877-7.934 5.151-.803 2.079-.802 4.347-.802 6.54v31.776l-11.386 17.943c-.496.781-.778 1.754-.778 2.679v23.735c0 10.564 4.725 20.04 12.165 26.445v19.805c0 2.193-.001 4.461.802 6.54 1.265 3.273 4.156 5.151 7.934 5.151h10.6v156.148 28.282 30.021c0 14.946 12.159 27.105 27.105 27.105h191.775c14.945 0 27.104-12.16 27.104-27.105v-30.012c0-.003.001-.006.001-.01s-.001-.006-.001-.01v-135.36h-10v130.373h-225.985v-24.592-178.516c9.868-1.898 18.272-7.959 23.297-16.285 6.115 10.13 17.228 16.919 29.899 16.919s23.784-6.789 29.898-16.919c6.115 10.13 17.228 16.919 29.898 16.919s23.784-6.789 29.898-16.919c6.115 10.13 17.228 16.919 29.898 16.919 12.671 0 23.784-6.789 29.898-16.919 6.115 10.13 17.228 16.919 29.898 16.919 19.243 0 34.899-15.655 34.899-34.898v-23.735c.003-.022-.003-.042-.003-.065zm-31.495-54.024h7.451c1.039 0 1.885.846 1.885 1.885v15.824l-9.336-14.712zm-7.749 9.45 25.154 39.64h-47.255l-15.092-39.64zm-144.516 0-5.031 39.64h-48.138l15.093-39.64zm10.08 0h38.386l5.031 39.64h-48.448zm53.497 39.64-5.031-39.64h38.076l15.092 39.64zm-166.615-49.09h9.318v2.998l-9.335 14.711s-.001-17.149.017-17.709zm18.54 7.129c.528-.832.779-1.762.778-2.679v-30.022c0-9.432 7.673-17.105 17.105-17.105h191.775c9.432 0 17.104 7.673 17.104 17.105v25.021h-196.98c-2.761 0-5 2.239-5 5s2.239 5 5 5h5.939l-15.093 39.64h-47.255zm-18.54 118.636c-.018-.56-.017-1.188-.017-1.688v-13.771c2.94 1.157 6.071 1.931 9.335 2.248v13.21h-9.318zm245.303 199.431v25.021c0 9.432-7.673 17.105-17.104 17.105h-191.776c-9.432 0-17.105-7.673-17.105-17.105v-25.021zm-232.586-222.473c-13.729 0-24.898-11.169-24.898-24.898v-18.735h49.797v18.735c-.001 13.728-11.17 24.898-24.899 24.898zm59.797 0c-13.729 0-24.899-11.169-24.899-24.898v-18.735h49.797v18.735c.001 13.728-11.169 24.898-24.898 24.898zm59.797 0c-13.729 0-24.898-11.169-24.898-24.898v-18.735h49.797v18.735c-.001 13.728-11.17 24.898-24.899 24.898zm59.797 0c-13.729 0-24.898-11.169-24.898-24.898v-18.735h49.797v18.735c-.001 13.728-11.17 24.898-24.899 24.898zm84.696-24.899c0 13.729-11.17 24.898-24.899 24.898s-24.898-11.169-24.898-24.898v-18.735h49.798v18.735z" fill="#00c"/><g fill="#ff4d4d"><path d="m255.261 49.502h-40.52c-2.762 0-5-2.239-5-5s2.238-5 5-5h40.52c2.762 0 5 2.239 5 5s-2.239 5-5 5z"/><path d="m214.668 405.502v12.667c0 2.761 2.239 5 5 5h30.667c2.761 0 5-2.239 5-5v-12.667c0-2.761-2.239-5-5-5h-30.667c-2.762 0-5 2.238-5 5z"/><path d="m314.011 416.835h-16.52c-2.762 0-5-2.239-5-5s2.238-5 5-5h16.52c2.762 0 5 2.239 5 5s-2.239 5-5 5z"/><path d="m172.511 416.835h-16.52c-2.762 0-5-2.239-5-5s2.238-5 5-5h16.52c2.762 0 5 2.239 5 5s-2.239 5-5 5z"/></g><circle cx="235.001" cy="247.803" fill="#ff6c6c" r="68.435"/><circle cx="235.001" cy="247.803" fill="#fff" r="46.801"/><path d="m259.341 183.832c-7.09 4.36-15.43 6.87-24.34 6.87s-17.25-2.51-24.34-6.87c7.56-2.88 15.77-4.46 24.34-4.46s16.78 1.58 24.34 4.46z" fill="#ff4d4d"/><path d="m241.896 274.155h-19.013c-2.761 0-5-2.239-5-5s2.239-5 5-5h19.013c3.13 0 5.676-2.546 5.676-5.676s-2.546-5.676-5.676-5.676h-13.789c-8.644 0-15.676-7.032-15.676-15.675s7.032-15.676 15.676-15.676h19.012c2.762 0 5 2.239 5 5s-2.238 5-5 5h-19.012c-3.129 0-5.676 2.546-5.676 5.675s2.546 5.676 5.676 5.676h13.789c8.644 0 15.676 7.032 15.676 15.676s-7.033 15.676-15.676 15.676z" fill="#ff4d4d"/><path d="m235.001 282.105c-2.761 0-5-2.239-5-5v-58.603c0-2.761 2.239-5 5-5 2.762 0 5 2.239 5 5v58.603c0 2.761-2.238 5-5 5z" fill="#ff4d4d"/><path d="m277.251 336.796h-84.5c-2.762 0-5-2.239-5-5s2.238-5 5-5h84.5c2.762 0 5 2.239 5 5s-2.238 5-5 5z" fill="#9494ff"/><path d="m277.251 356.921h-84.5c-2.762 0-5-2.239-5-5s2.238-5 5-5h84.5c2.762 0 5 2.239 5 5s-2.238 5-5 5z" fill="#9494ff"/><path d="m317.251 228.353c-2.761 0-5-2.239-5-5v-21c0-2.761 2.239-5 5-5s5 2.239 5 5v21c0 2.761-2.239 5-5 5z" fill="#ffab66"/><path d="m152.751 292.642c-2.761 0-5-2.239-5-5v-21c0-2.761 2.239-5 5-5s5 2.239 5 5v21c0 2.761-2.239 5-5 5z" fill="#ffab66"/><path d="m404.494 49.502c-1.279 0-2.56-.488-3.535-1.464l-6.465-6.464-6.465 6.464c-1.951 1.952-5.119 1.952-7.07 0-1.953-1.953-1.953-5.119 0-7.071l10-10c1.951-1.952 5.119-1.952 7.07 0l10 10c1.953 1.953 1.953 5.119 0 7.071-.975.976-2.256 1.464-3.535 1.464z" fill="#6c6cff"/><path d="m58.625 144.419c-1.28 0-2.559-.488-3.536-1.464l-6.464-6.464-6.464 6.464c-1.953 1.952-5.118 1.952-7.071 0-1.953-1.953-1.953-5.119 0-7.071l10-10c1.953-1.952 5.118-1.952 7.071 0l10 10c1.953 1.953 1.953 5.119 0 7.071-.977.976-2.257 1.464-3.536 1.464z" fill="#ff6c6c"/><path d="m431.378 263.094c-1.279 0-2.56-.488-3.535-1.464l-6.465-6.464-6.465 6.464c-1.951 1.952-5.119 1.952-7.07 0-1.953-1.953-1.953-5.119 0-7.071l10-10c1.951-1.952 5.119-1.952 7.07 0l10 10c1.953 1.953 1.953 5.119 0 7.071-.975.976-2.256 1.464-3.535 1.464z" fill="#ff9d33"/><path d="m89.508 382.375c-1.28 0-2.559-.488-3.536-1.464l-6.464-6.464-6.464 6.464c-1.953 1.952-5.118 1.952-7.071 0-1.953-1.953-1.953-5.119 0-7.071l10-10c1.953-1.952 5.118-1.952 7.071 0l10 10c1.953 1.953 1.953 5.119 0 7.071-.977.976-2.256 1.464-3.536 1.464z" fill="#6c6cff"/><path d="m389.494 327.092c-1.279 0-2.56-.488-3.535-1.464-1.953-1.953-1.953-5.119 0-7.071l10-10c1.951-1.952 5.119-1.952 7.07 0 1.953 1.953 1.953 5.119 0 7.071l-10 10c-.975.976-2.256 1.464-3.535 1.464z" fill="#ff6c6c"/></svg>