<svg viewBox="0 0 48 48" fill="currentColor" xmlns="http://www.w3.org/2000/svg">
<g clip-path="url(#clip0)">
<path d="M25.372 20.8086C24.8451 21.3355 24.8451 22.1806 25.372 22.7075C27.5493 24.8848 27.5493 28.4242 25.372 30.6015L13.9387 42.0348C11.7614 44.2121 8.22204 44.2121 6.04474 42.0348L4.32477 40.3148C2.14747 38.1375 2.14747 34.5981 4.32477 32.4208L15.7581 20.9875C16.285 20.4606 16.285 19.6155 15.7581 19.0886C15.2312 18.5617 14.3861 18.5617 13.8592 19.0886L2.42585 30.5219C0.864954 32.0828 0 34.1607 0 36.3678C0 38.5749 0.855012 40.6528 2.42585 42.2137L4.14582 43.9337C5.75642 45.5443 7.87407 46.3496 9.99171 46.3496C12.1094 46.3496 14.227 45.5443 15.8376 43.9337L27.2709 32.5004C30.4921 29.2792 30.4921 24.0298 27.2709 20.8086C26.7539 20.2817 25.8989 20.2817 25.372 20.8086V20.8086Z" stroke="currentColor"/>
<path d="M45.5841 5.78626L43.8641 4.0663C40.6429 0.845088 35.3935 0.845088 32.1723 4.0663L20.739 15.4996C17.5178 18.7208 17.5178 23.9702 20.739 27.1914C21.266 27.7183 22.111 27.7183 22.6379 27.1914C23.1649 26.6645 23.1649 25.8194 22.6379 25.2925C20.4607 23.1152 20.4607 19.5758 22.6379 17.3985L34.0713 5.96522C36.2486 3.78792 39.7879 3.78792 41.9652 5.96522L43.6852 7.68519C45.8625 9.86249 45.8625 13.4018 43.6852 15.5791L32.2519 27.0124C31.7249 27.5394 31.7249 28.3844 32.2519 28.9114C32.5104 29.1699 32.8583 29.309 33.1964 29.309C33.5344 29.309 33.8824 29.1798 34.1408 28.9114L45.5742 17.4781C47.135 15.9172 48 13.8393 48 11.6322C48 9.42504 47.145 7.34716 45.5841 5.78626V5.78626Z" stroke="currentColor"/>
</g>
<defs>
<clipPath id="clip0">
<rect width="48" height="48" fill="currentColor"/>
</clipPath>
</defs>
</svg>
