<svg id="Capa_1" enable-background="new 0 0 512 512" height="512" viewBox="0 0 512 512" width="512" xmlns="http://www.w3.org/2000/svg"><g><circle cx="256" cy="267" fill="#af66da" r="245"/><g><path d="m320.912 0h-129.824c-3.637 0-6.057 3.759-4.551 7.07l30.895 67.93h77.137l30.895-67.93c1.505-3.311-.915-7.07-4.552-7.07z" fill="#0ed290"/></g><path d="m422.009 228.68c-1.926 0-3.657 1.07-4.519 2.793l-3.901 7.801c1.581 9.008 2.411 18.272 2.411 27.726 0 88.224-71.775 160-160 160-18.042 0-35.395-3.005-51.588-8.536-1.444 5.006-3.3 9.839-5.534 14.457 25.42 16.793 55.876 26.578 88.622 26.578 88.918 0 161-72.082 161-161 0-25.016-5.706-48.7-15.886-69.82h-10.605z" fill="#9857bd"/><path d="m302.579 112.852c-.513.092-1.039.148-1.579.148h-90c-.54 0-1.066-.056-1.579-.148-66.204 19.979-114.421 81.428-114.421 154.148 0 88.918 72.082 161 161 161s161-72.082 161-161c0-72.72-48.217-134.169-114.421-154.148z" fill="#0ed290"/><path d="m152 267c0-72.54 47.977-133.866 113.928-154h-54.928c-.54 0-1.066-.056-1.579-.148-66.204 19.979-114.421 81.428-114.421 154.148 0 88.918 72.082 161 161 161 9.726 0 19.25-.862 28.5-2.515-75.324-13.455-132.5-79.293-132.5-158.485z" fill="#00c285"/><path d="m293.918 232.569c2.761 0 5-2.239 5-5v-15c0-2.761-2.239-5-5-5h-25.418v-12.763c0-2.761-2.239-5-5-5h-15c-2.761 0-5 2.239-5 5v12.763h-6.299c-13.32 0-24.119 10.798-24.119 24.119v24.091c0 13.32 10.798 24.118 24.118 24.118h36.718v21.534h-55.836c-2.761 0-5 2.239-5 5v15c0 2.761 2.239 5 5 5h25.418v12.763c0 2.761 2.239 5 5 5h15c2.761 0 5-2.239 5-5v-12.763h6.299c13.32 0 24.119-10.798 24.119-24.119v-23.297c0-13.32-10.798-24.118-24.118-24.118h-36.718v-22.328z" fill="#fff"/><g><circle cx="116" cy="393" fill="#fed402" r="93"/><circle cx="116" cy="393" fill="#fac600" r="67.006"/><path d="m74 393c0-32.732 23.475-59.965 54.503-65.824-4.053-.765-8.228-1.183-12.503-1.183-37.007 0-67.006 30-67.006 67.006s30 67.006 67.006 67.006c4.275 0 8.451-.417 12.503-1.183-31.028-5.857-54.503-33.09-54.503-65.822z" fill="#e8b800"/><path d="m136.07 373.391c2.761 0 5-2.239 5-5v-5c0-2.761-2.239-5-5-5h-12.57v-5.261c0-2.761-2.239-5-5-5h-5c-2.761 0-5 2.239-5 5v5.261h-3.359c-7.849 0-14.211 6.363-14.211 14.211v13.916c0 7.849 6.362 14.211 14.211 14.211h20.93v11.88h-30.141c-2.761 0-5 2.239-5 5v5c0 2.761 2.239 5 5 5h12.57v5.261c0 2.761 2.239 5 5 5h5c2.761 0 5-2.239 5-5v-5.261h3.359c7.849 0 14.211-6.363 14.211-14.211v-13.458c0-7.849-6.362-14.211-14.211-14.211h-20.93v-12.338z" fill="#fff"/></g><g><path d="m264.977 74-30.44-66.93c-1.506-3.311.914-7.07 4.551-7.07h-48c-3.637 0-6.057 3.759-4.551 7.07l30.44 66.93z" fill="#00c285"/></g><path d="m301 114h-90c-5.523 0-10-4.477-10-10v-20c0-5.523 4.477-10 10-10h90c5.523 0 10 4.477 10 10v20c0 5.523-4.477 10-10 10z" fill="#fed402"/><path d="m241 104v-20c0-5.523 4.477-10 10-10h-40c-5.523 0-10 4.477-10 10v20c0 5.523 4.477 10 10 10h40c-5.523 0-10-4.477-10-10z" fill="#fac600"/><g><path d="m471.627 83h-138.575c-2.238 0-4.052 1.814-4.052 4.052v138.575c0 2.238 1.814 4.052 4.052 4.052h49.618c1.535 0 2.938.867 3.625 2.24l12.42 24.84c1.493 2.987 5.756 2.987 7.249 0l12.42-24.84c.686-1.373 2.09-2.24 3.625-2.24h49.618c2.238 0 4.052-1.814 4.052-4.052v-138.575c.001-2.238-1.814-4.052-4.052-4.052z" fill="#fed402"/><g><path d="m365.32 225.627v-138.575c0-2.238 1.814-4.052 4.052-4.052h-36.32c-2.238 0-4.052 1.814-4.052 4.052v138.575c0 2.238 1.814 4.052 4.052 4.052h36.32c-2.237.001-4.052-1.814-4.052-4.052z" fill="#fac600"/></g><g fill="#fff"><path d="m405 112.5h-46.289c-2.761 0-5 2.239-5 5v5c0 2.761 2.239 5 5 5h46.289c2.761 0 5-2.239 5-5v-5c0-2.761-2.239-5-5-5z"/><path d="m353.711 151.5v5c0 2.761 2.239 5 5 5h87.258c2.761 0 5-2.239 5-5v-5c0-2.761-2.239-5-5-5h-87.258c-2.761 0-5 2.239-5 5z"/><path d="m358.711 195.5h87.258c2.761 0 5-2.239 5-5v-5c0-2.761-2.239-5-5-5h-87.258c-2.761 0-5 2.239-5 5v5c0 2.761 2.239 5 5 5z"/></g></g></g></svg>