<svg viewBox="0 0 48 48" fill="currentColor" xmlns="http://www.w3.org/2000/svg">
<path d="M24 42C13.608 42 4.36998 35.866 0.46598 26.372C-0.153943 24.8521 -0.153943 23.1499 0.46598 21.63C4.36998 12.134 13.608 6 24 6C34.392 6 43.63 12.134 47.534 21.628C48.154 23.134 48.154 24.864 47.534 26.37C43.63 35.866 34.392 42 24 42ZM24 8C14.422 8 5.90998 13.648 2.31598 22.388C1.89608 23.421 1.89608 24.577 2.31598 25.61C5.90998 34.352 14.422 40 24 40C33.578 40 42.09 34.352 45.684 25.612C46.104 24.588 46.104 23.414 45.684 22.39C42.09 13.648 33.578 8 24 8Z" stroke="currentColor"/>
<path d="M24 32C19.588 32 16 28.412 16 24C16 19.588 19.588 16 24 16C28.412 16 32 19.588 32 24C32 28.412 28.412 32 24 32ZM24 18C20.692 18 18 20.692 18 24C18 27.308 20.692 30 24 30C27.308 30 30 27.308 30 24C30 20.692 27.308 18 24 18Z" stroke="currentColor"/>
</svg>
