<svg id="Capa_1" enable-background="new 0 0 512 512" height="512" viewBox="0 0 512 512" width="512" xmlns="http://www.w3.org/2000/svg"><g><g fill="#0ed290"><path d="m256 22c-135.31 0-245 109.69-245 245 0 30.737 5.677 60.143 16.011 87.25l14.328 1h62.958c3.898-13.276 16.183-23 30.703-23s26.804 9.724 30.703 23h72.461c3.301-6.514 10.047-11 17.836-11s14.535 4.486 17.836 11h74.328c3.301-6.514 10.047-11 17.836-11s14.535 4.486 17.836 11h88.139l13.014-1c10.334-27.107 16.011-56.513 16.011-87.25 0-135.31-109.69-245-245-245z"/><path d="m463.199 373.25h-79.364c-3.301 6.514-10.047 11-17.836 11s-14.535-4.486-17.836-11h-74.328c-3.301 6.514-10.047 11-17.836 11s-14.535-4.486-17.836-11h-72.461c-3.898 13.276-16.183 23-30.703 23s-26.804-9.724-30.703-23h-54.634l-13.989 1c39.773 81.555 123.483 137.75 220.327 137.75s180.554-56.195 220.327-137.75z"/></g><g><path d="m135 165.324c0-44.395 35.99-80.385 80.385-80.385h-30c-44.395 0-80.385 35.99-80.385 80.385v138.78c0 4.276 5.019 6.579 8.26 3.791l21.74-18.7z" fill="#00c285"/><path d="m466 84.939h-89.721c-4.886 36.086-35.874 64-73.279 64s-68.393-27.914-73.279-64h-14.336c-44.395 0-80.385 35.99-80.385 80.385v138.78c0 4.276 5.019 6.579 8.26 3.791l32.446-27.909c4.536-3.901 10.32-6.047 16.303-6.047h198.606c44.395 0 80.385-35.99 80.385-80.385v-103.615c0-2.761-2.239-5-5-5z" fill="#fed402"/><path d="m228.71 84.939h-13.325c-44.395 0-80.385 35.99-80.385 80.385v138.78c0 4.276 5.019 6.579 8.26 3.791l32.446-27.909c.73-.628 1.502-1.193 2.293-1.726v-112.936c0-34.247 21.426-63.474 51.598-75.055-.363-1.753-.648-3.534-.887-5.33z" fill="#fac600"/><g><path d="m165.391 354.25c1.039 3.148 1.609 6.508 1.609 10s-.57 6.852-1.609 10h73.315c-1.71-2.946-2.706-6.355-2.706-10s.996-7.054 2.706-10z" fill="#e8b800"/><g fill="#08a9f1"><path d="m348.706 374.25c-1.71-2.946-2.706-6.355-2.706-10s.996-7.054 2.706-10h-75.412c1.71 2.946 2.706 6.355 2.706 10s-.996 7.054-2.706 10z"/><path d="m103 364.25c0-3.492.57-6.852 1.609-10h-77.598c2.599 6.817 5.487 13.49 8.661 20h68.936c-1.038-3.148-1.608-6.508-1.608-10z"/><path d="m383.294 354.25c1.71 2.946 2.706 6.355 2.706 10s-.996 7.054-2.706 10h93.033c3.175-6.51 6.062-13.183 8.661-20z"/></g></g><g><circle cx="135" cy="364.25" fill="#fed402" r="33"/></g><path d="m126 364.25c0-13.99 8.71-25.938 21-30.74-3.72-1.453-7.765-2.26-12-2.26-18.225 0-33 14.775-33 33s14.775 33 33 33c4.235 0 8.28-.807 12-2.26-12.29-4.802-21-16.75-21-30.74z" fill="#fac600"/><g><circle cx="256" cy="364.25" fill="#c8effe" r="21"/></g><path d="m251 364.25c0-8.764 5.372-16.266 13-19.413-2.467-1.018-5.166-1.587-8-1.587-11.598 0-21 9.402-21 21s9.402 21 21 21c2.834 0 5.533-.569 8-1.587-7.628-3.147-13-10.649-13-19.413z" fill="#99e6fc"/><g><circle cx="366" cy="364.25" fill="#c8effe" r="21"/></g><path d="m361 364.25c0-8.764 5.372-16.266 13-19.413-2.467-1.018-5.166-1.587-8-1.587-11.598 0-21 9.402-21 21s9.402 21 21 21c2.834 0 5.533-.569 8-1.587-7.628-3.147-13-10.649-13-19.413z" fill="#99e6fc"/><g><g><g><circle cx="303" cy="74.97" fill="#99e6fc" r="74.97"/></g><g><circle cx="303" cy="74.97" fill="#01c0fa" r="53.004"/></g><path d="m275 74.969c0-24.965 17.264-45.886 40.502-51.507-4.01-.97-8.194-1.497-12.502-1.497-29.273 0-53.004 23.731-53.004 53.004s23.731 53.004 53.004 53.004c4.308 0 8.492-.527 12.502-1.497-23.238-5.621-40.502-26.542-40.502-51.507z" fill="#08a9f1"/></g><g><g><g><path d="m311 106.174h-9c-1.657 0-3-1.343-3-3v-46.372h-4.497c-1.657 0-3-1.343-3-3v-9c0-1.657 1.343-3 3-3h11.997c4.142 0 7.5 3.358 7.5 7.5v53.872c0 1.657-1.343 3-3 3z" fill="#fff"/></g></g></g></g><g><path d="m413 183.5h-148c-2.761 0-5-2.239-5-5v-5c0-2.761 2.239-5 5-5h148c2.761 0 5 2.239 5 5v5c0 2.761-2.239 5-5 5z" fill="#fff"/></g><g><path d="m235 183.5h-42c-2.761 0-5-2.239-5-5v-5c0-2.761 2.239-5 5-5h42c2.761 0 5 2.239 5 5v5c0 2.761-2.239 5-5 5z" fill="#fff"/></g><g><path d="m333 225.5h-140c-2.761 0-5-2.239-5-5v-5c0-2.761 2.239-5 5-5h140c2.761 0 5 2.239 5 5v5c0 2.761-2.239 5-5 5z" fill="#fff"/></g><g><g><path d="m370 424.5h-184c-2.761 0-5-2.239-5-5v-5c0-2.761 2.239-5 5-5h184c2.761 0 5 2.239 5 5v5c0 2.761-2.239 5-5 5z" fill="#c8effe"/></g><g><path d="m295 460.5h-109c-2.761 0-5-2.239-5-5v-5c0-2.761 2.239-5 5-5h109c2.761 0 5 2.239 5 5v5c0 2.761-2.239 5-5 5z" fill="#c8effe"/></g></g></g></g></svg>