<svg id="Capa_1" enable-background="new 0 0 512 512" height="512" viewBox="0 0 512 512" width="512" xmlns="http://www.w3.org/2000/svg" xmlns:xlink="http://www.w3.org/1999/xlink"><linearGradient id="SVGID_1_" gradientUnits="userSpaceOnUse" x1="23.821" x2="459.531" y1="343.269" y2="91.711"><stop offset="0" stop-color="#d2deff" stop-opacity="0"/><stop offset="1" stop-color="#b7c5ff"/></linearGradient><g><g><path d="m16.074 302.88c18.727 64.003 72.707 194.564 163.922 182.845 91.486-11.755 55.758-129.725 139.508-145.894 36.867-7.118 61.857 56.689 98.806 54.704 47.588-2.557 71.81-49.663 85.108-89.264 28.197-83.968-14.029-226.352-112.858-251.011-86.245-21.519-96.333 83.855-171.322 53.248-42.149-17.203-37.938-68.576-89.272-78.942-155.299-31.36-138.811 189.15-113.892 274.314z" fill="url(#SVGID_1_)"/></g><g><g><path d="m411.69 136.9v327.83c0 8.28-6.72 15-15 15h-281.38c-8.28 0-15-6.72-15-15v-392.46c0-8.28 6.72-15 15-15h216.75z" fill="#6583fe" opacity=".2"/><g><g><g><path d="m411.69 111.9v327.83c0 8.28-6.72 15-15 15h-281.38c-8.28 0-15-6.72-15-15v-392.46c0-8.28 6.72-15 15-15h216.75z" fill="#fff"/><path d="m411.69 198.59v17.11c-3.7-1.43-9.2 2.19-12.4 4.01-6.02 3.41-11.39 7.73-16.47 12.4-22.24 20.42-38.63 46.73-62.01 65.94-8.95 7.35-19.32 13.9-31.22 14.44-8.7.39-20.41-2.94-25.03-11-8.1-14.12 1.27-36.29 6.13-49.94 8.65-24.33 19.37-47.87 29.11-71.77 7.63-18.71 5.05-25.74-4.45-21.42-20.05 9.14-39.94 31.09-52.86 49.23-5.8 8.14-17.45 9.25-24.59 2.25-6.25-6.12-13.45-13.17-19.27-18.87-6.2-6.08-6.51-15.95-.72-22.41 6.7-7.49 13.64-14.76 20.81-21.77 20.33-19.87 44.14-40.56 71.94-48.81 16.85-5 40.38-5.42 41.99 16.77 1.4 19.37-8.13 40.34-15.02 57.92-9.54 24.33-19.91 48.32-29.72 72.54-11.21 27.66 7.46 37.63 25.06 17.3 26.76-30.92 68.84-76.62 98.72-63.92z" fill="#6583fe"/><g><path d="m150.886 145.289c16.135-17.07 42.082-17.062 57.843-7.188 15.361 9.623 15.184 21.309 15.184 21.309s-16.298 2.923-15.095 13.634c1.169 10.406 23.764 38.351-20.438 54.537-34.573 12.661-81.319-35.929-37.494-82.292z" fill="#fff"/><path d="m223.91 159.41s-16.3 2.92-15.09 13.63c.14 1.28.61 2.83 1.25 4.6-5.09 1.86-10.57 2.87-16.3 2.87-21.08 0-38.95-13.72-45.16-32.71.73-.84 1.49-1.67 2.28-2.51 16.13-17.07 42.08-17.06 57.84-7.19 15.36 9.62 15.18 21.31 15.18 21.31z" fill="#6583fe"/><g><path d="m176.649 234.625c-15.235.002-30.811-8.448-40.328-22.902-14.169-21.519-10.083-47.638 10.931-69.868 17.9-18.936 46.663-18.934 64.131-7.991 17.546 10.992 17.538 25.03 17.529 25.622l-.062 4.119-4.054.727c-.104.019-11.653 2.421-11.009 8.154.152 1.355 1.1 3.832 2.103 6.454 3.031 7.924 7.612 19.899 2.251 31.677-4.187 9.198-13.359 16.282-28.041 21.659-4.337 1.588-8.88 2.349-13.451 2.349zm7.542-98.259c-10.538 0-21.513 3.726-29.672 12.357-17.607 18.627-21.288 40.122-9.846 57.5 9.69 14.717 27.739 21.879 41.987 16.662 11.871-4.347 19.4-9.868 22.378-16.411 3.628-7.97.235-16.837-2.49-23.961-1.291-3.375-2.406-6.29-2.7-8.912-1.099-9.784 7.006-15.314 14.256-17.818-1.224-3.363-4.3-8.602-12.03-13.445-6.077-3.807-13.853-5.972-21.883-5.972z" fill="#2626bc"/></g><path d="m195.71 345.166 4.339-74.69h-43.081l4.338 74.69z" fill="#fff"/><g><path d="m200.428 350.166h-43.839l-4.92-84.69h53.679zm-34.404-10h24.968l3.758-64.69h-32.484z" fill="#2626bc"/></g><path d="m203.95 280.404 4.939-50.11c.39-3.96-2.721-7.393-6.7-7.393h-47.364c-3.979 0-7.09 3.433-6.7 7.393l4.939 50.11c.34 3.446 3.237 6.072 6.7 6.072h37.485c3.464-.001 6.362-2.627 6.701-6.072z" fill="#fff"/><g><path d="m197.251 291.476h-37.485c-6.062 0-11.081-4.55-11.676-10.582l-4.939-50.109c-.324-3.288.763-6.579 2.982-9.028 2.22-2.45 5.389-3.855 8.694-3.855h47.364c3.305 0 6.474 1.404 8.694 3.855 2.219 2.449 3.306 5.74 2.982 9.029l-4.939 50.108c-.596 6.032-5.615 10.582-11.677 10.582zm-42.425-63.575c-.669 0-1.091.356-1.284.569-.192.212-.506.668-.44 1.332l4.94 50.11c.087.891.829 1.562 1.724 1.562h37.485c.895 0 1.636-.672 1.724-1.562l4.939-50.109c.066-.665-.248-1.121-.44-1.333-.192-.213-.616-.569-1.284-.569z" fill="#2626bc"/></g></g><path d="m163.613 76.887c0-9.161-7.453-16.613-16.613-16.613s-16.613 7.453-16.613 16.613c0 4.518 1.818 8.615 4.755 11.613-2.936 2.998-4.755 7.095-4.755 11.613 0 2.761 2.238 5 5 5s5-2.239 5-5c0-3.646 2.967-6.613 6.613-6.613s6.613 2.967 6.613 6.613c0 2.761 2.238 5 5 5s5-2.239 5-5c0-4.518-1.818-8.615-4.755-11.613 2.937-2.998 4.755-7.095 4.755-11.613zm-16.613-6.614c3.646 0 6.613 2.967 6.613 6.613s-2.966 6.614-6.613 6.614-6.613-2.967-6.613-6.613 2.967-6.614 6.613-6.614z" fill="#2626bc"/><path d="m100.31 303v136.73c0 8.284 6.716 15 15 15h281.38c8.284 0 15-6.716 15-15v-136.73z" fill="#6583fe"/><path d="m332.06 96.9v-64.63l79.63 79.63h-64.63c-8.284 0-15-6.716-15-15z" fill="#6583fe"/><g fill="#2626bc"><path d="m411.69 140.9c-2.762 0-5 2.238-5 5v293.83c0 5.514-4.486 10-10 10h-60.023c-2.762 0-5 2.238-5 5s2.238 5 5 5h60.023c11.028 0 20-8.972 20-20v-293.83c0-2.761-2.239-5-5-5z"/><path d="m347.061 116.9h64.63c2.022 0 3.846-1.218 4.619-3.087.774-1.868.347-4.019-1.084-5.448l-79.63-79.631c-.919-.936-2.225-1.465-3.535-1.465h-216.751c-11.028 0-20 8.972-20 20v392.461c0 11.028 8.972 20 20 20h187.356c2.762 0 5-2.238 5-5s-2.238-5-5-5h-187.356c-5.514 0-10-4.486-10-10v-392.46c0-5.514 4.486-10 10-10h211.75v59.63c.001 11.029 8.972 20 20.001 20zm-10-72.559 62.559 62.56h-52.559c-5.514 0-10-4.486-10-10z"/></g></g><g fill="#2626bc"><path d="m198.35 323.333h-39.683c-6.892 0-12.5 5.607-12.5 12.5v82.334c0 4.143 3.358 7.5 7.5 7.5s7.5-3.357 7.5-7.5v-40.5h37.183c6.893 0 12.5-5.607 12.5-12.5v-29.334c0-6.893-5.608-12.5-12.5-12.5zm-2.5 39.334h-34.683v-24.334h34.683z"/><path d="m280.842 338.333c4.143 0 7.5-3.357 7.5-7.5s-3.357-7.5-7.5-7.5h-44.684c-6.892 0-12.5 5.607-12.5 12.5v33.667c0 6.893 5.607 12.5 12.5 12.5h37.184v28.667h-42.184c-4.142 0-7.5 3.357-7.5 7.5s3.358 7.5 7.5 7.5h44.684c6.893 0 12.5-5.607 12.5-12.5v-33.667c0-6.893-5.607-12.5-12.5-12.5h-37.184v-28.667z"/><path d="m338.333 323.333h-24.683c-6.893 0-12.5 5.607-12.5 12.5v77.334c0 6.893 5.607 12.5 12.5 12.5h24.683c15.163 0 27.5-12.337 27.5-27.5v-47.334c0-15.163-12.337-27.5-27.5-27.5zm12.5 74.834c0 6.893-5.607 12.5-12.5 12.5h-22.183v-72.334h22.183c6.893 0 12.5 5.607 12.5 12.5z"/></g></g><g><path d="m190.5 244.5h-23.5c-2.761 0-5-2.238-5-5s2.239-5 5-5h23.5c2.761 0 5 2.238 5 5s-2.239 5-5 5z" fill="#6583fe"/></g></g></g><g fill="#6583fe"><path d="m440 435.667c-1.279 0-2.56-.488-3.535-1.465-1.953-1.952-1.953-5.118 0-7.07l10-10c1.951-1.953 5.119-1.953 7.07 0 1.953 1.952 1.953 5.118 0 7.07l-10 10c-.975.977-2.256 1.465-3.535 1.465z"/><path d="m62 225.271c-1.28 0-2.559-.488-3.536-1.465-1.953-1.952-1.953-5.118 0-7.07l10-10c1.953-1.953 5.118-1.953 7.071 0 1.953 1.952 1.953 5.118 0 7.07l-10 10c-.976.976-2.255 1.465-3.535 1.465z"/><path d="m45 445.667c-1.28 0-2.559-.488-3.536-1.465-1.953-1.952-1.953-5.118 0-7.07l10-10c1.953-1.953 5.118-1.953 7.071 0 1.953 1.952 1.953 5.118 0 7.07l-10 10c-.976.977-2.255 1.465-3.535 1.465z"/><path d="m51 170.643c-2.761 0-5-2.238-5-5 0-3.309-2.691-6-6-6-2.761 0-5-2.238-5-5s2.239-5 5-5c3.309 0 6-2.691 6-6 0-2.762 2.239-5 5-5s5 2.238 5 5c0 3.309 2.691 6 6 6 2.761 0 5 2.238 5 5s-2.239 5-5 5c-3.309 0-6 2.691-6 6 0 2.761-2.239 5-5 5z"/><path d="m461 395.5c-2.762 0-5-2.238-5-5 0-3.309-2.691-6-6-6-2.762 0-5-2.238-5-5s2.238-5 5-5c3.309 0 6-2.691 6-6 0-2.762 2.238-5 5-5s5 2.238 5 5c0 3.309 2.691 6 6 6 2.762 0 5 2.238 5 5s-2.238 5-5 5c-3.309 0-6 2.691-6 6 0 2.762-2.238 5-5 5z"/></g></g></g></svg>