<svg height="512pt" viewBox="-11 0 512 512" width="512pt" xmlns="http://www.w3.org/2000/svg"><path d="m486.898438 306.003906c2.03125-12.703125 3.101562-25.726562 3.101562-39.003906 0-135.308594-109.691406-245-245-245s-245 109.691406-245 245c0 13.277344 1.070312 26.300781 3.105469 39.003906zm0 0" fill="#fecd0a"/><path d="m2.9375 305.003906c18.261719 117.261719 119.679688 206.996094 242.0625 206.996094 79.832031 0 150.738281-38.191406 195.46875-97.289062v-343.828126h-437.53125zm0 0" fill="#e6f7fe"/><path d="m69.390625 70.882812h-66.453125v234.121094c7.984375 51.273438 31.871094 97.28125 66.453125 132.828125zm0 0" fill="#d5f1fe"/><path d="m179.285156 316.261719v-48.863281c0-4.773438-3.871094-8.644532-8.648437-8.644532h-130.214844c-4.777344 0-8.648437 3.871094-8.648437 8.644532v48.863281c0 4.777343 3.871093 8.648437 8.648437 8.648437h130.214844c4.777343 0 8.648437-3.871094 8.648437-8.648437zm0 0" fill="#11dfef"/><path d="m170.636719 356.726562h-130.214844c-4.777344 0-8.648437 3.875-8.648437 8.648438v22.347656c7.054687 12.4375 15.160156 24.203125 24.210937 35.164063h114.652344c4.773437 0 8.648437-3.871094 8.648437-8.648438v-48.863281c0-4.773438-3.871094-8.648438-8.648437-8.648438zm0 0" fill="#11dfef"/><path d="m66.273438 316.261719v-48.863281c0-4.777344 3.871093-8.648438 8.648437-8.648438h-34.5c-4.777344 0-8.648437 3.871094-8.648437 8.648438v48.863281c0 4.777343 3.871093 8.648437 8.648437 8.648437h34.5c-4.777344 0-8.648437-3.871094-8.648437-8.648437zm0 0" fill="#0ac6e5"/><path d="m66.273438 414.238281v-48.863281c0-4.773438 3.871093-8.648438 8.648437-8.648438h-34.5c-4.777344 0-8.648437 3.875-8.648437 8.648438v22.347656c7.054687 12.4375 15.160156 24.207032 24.207031 35.164063h18.941406c-4.777344 0-8.648437-3.871094-8.648437-8.648438zm0 0" fill="#0ac6e5"/><g fill="#11dfef"><path d="m288.507812 314.09375h-78.617187c-4.121094 0-7.457031-3.339844-7.457031-7.457031 0-4.121094 3.335937-7.457031 7.457031-7.457031h78.617187c4.117188 0 7.457032 3.335937 7.457032 7.457031 0 4.117187-3.339844 7.457031-7.457032 7.457031zm0 0"/><path d="m288.507812 282.542969h-78.617187c-4.121094 0-7.457031-3.339844-7.457031-7.457031 0-4.121094 3.335937-7.457032 7.457031-7.457032h78.617187c4.117188 0 7.457032 3.335938 7.457032 7.457032 0 4.117187-3.339844 7.457031-7.457032 7.457031zm0 0"/><path d="m288.507812 412.070312h-78.617187c-4.121094 0-7.457031-3.339843-7.457031-7.457031 0-4.121093 3.335937-7.457031 7.457031-7.457031h78.617187c4.117188 0 7.457032 3.335938 7.457032 7.457031 0 4.117188-3.339844 7.457031-7.457032 7.457031zm0 0"/><path d="m288.507812 380.519531h-78.617187c-4.121094 0-7.457031-3.339843-7.457031-7.457031 0-4.121094 3.335937-7.457031 7.457031-7.457031h78.617187c4.117188 0 7.457032 3.335937 7.457032 7.457031 0 4.117188-3.339844 7.457031-7.457032 7.457031zm0 0"/></g><path d="m2.9375 70.882812v131.730469c65.234375 20.410157 138.636719 19.476563 209.011719-26.210937 26.515625-17.210938 51.164062-28.011719 73.71875-34.191406 1.265625-12.574219 11.90625-22.417969 24.804687-22.417969h129.996094v-48.910157zm0 0" fill="#00c82f"/><path d="m69.390625 70.882812h-66.453125v131.730469c21.402344 6.695313 43.6875 11.09375 66.453125 12.367188zm0 0" fill="#02ad22"/><path d="m2.9375 46.753906h437.53125v26.117188h-437.53125zm0 0" fill="#d5f1fe"/><path d="m119.21875 72.871094h-116.28125v-26.117188h91.679688c13.585937 0 24.601562 11.691406 24.601562 26.117188zm0 0" fill="#11dfef"/><path d="m2.9375 46.753906h66.453125v26.117188h-66.453125zm0 0" fill="#0ac6e5"/><path d="m439.132812 0c-8.445312 0-422.570312 0-434.859374 0-.738282 0-1.335938.597656-1.335938 1.335938v46.933593h437.53125v-46.933593c0-.738282-.601562-1.335938-1.335938-1.335938zm0 0" fill="#615df9"/><path d="m69.390625 12c0-6.601562 5.398437-12 12-12-43.449219 0-73.914063 0-77.117187 0-.738282 0-1.335938.597656-1.335938 1.335938v46.933593h66.453125zm0 0" fill="#3342ae"/><path d="m39.066406 33.609375c-5.476562 0-9.941406-4.460937-9.941406-9.941406 0-4.738281 3.332031-8.804688 8.003906-9.753907 6.082032-1.222656 11.878906 3.453126 11.878906 9.753907 0 5.527343-4.519531 9.941406-9.941406 9.941406zm0 0" fill="#f948b4"/><path d="m69.390625 33.609375c-5.402344 0-9.945313-4.394531-9.945313-9.941406 0-6.285157 5.785157-10.980469 11.882813-9.753907 4.816406.980469 8.003906 5.1875 8.003906 9.753907 0 5.480469-4.464843 9.941406-9.941406 9.941406zm0 0" fill="#fecd0a"/><path d="m99.714844 33.609375c-5.402344 0-9.945313-4.394531-9.945313-9.941406 0-6.3125 5.8125-10.976563 11.882813-9.753907 4.816406.980469 8.003906 5.191407 8.003906 9.753907 0 5.480469-4.464844 9.941406-9.941406 9.941406zm0 0" fill="#39df74"/><path d="m378.710938 472.3125 93.054687-112.4375.003906.007812c7.125-17.382812 12.316407-35.765624 15.292969-54.878906v-160.277344c0-14.570312-11.855469-26.425781-26.425781-26.425781h-150.164063c-14.570312 0-26.421875 11.855469-26.421875 26.425781v316.457032c0 14.570312 11.851563 26.425781 26.421875 26.425781h41.210938c9.359375-4.535156 18.382812-9.652344 27.03125-15.296875zm0 0" fill="#3d4ec6"/><path d="m340.539062 471.675781c1.132813 0 2.210938.230469 3.191407.644531v-325.832031c-7.59375-.839843-13.5-7.269531-13.5-15.085937 0-5.59375 3.03125-10.46875 7.53125-13.101563h-27.289063c-14.570312 0-26.421875 11.855469-26.421875 26.425781v316.457032c0 14.570312 11.851563 26.425781 26.421875 26.425781h27.207032c-3.132813-1.164063-5.367188-4.171875-5.367188-7.707031 0-4.542969 3.683594-8.226563 8.226562-8.226563zm0 0" fill="#3342ae"/><path d="m356.761719 250.808594c-18.976563 12.3125-38.300781 19.371094-57.414063 22.378906v187.996094c0 6.144531 4.980469 11.128906 11.125 11.128906h68.238282c41.378906-27.003906 74.085937-66.175781 93.054687-112.4375 0-40.820312 0-87.441406 0-126.855469-24.542969-10.167969-64.238281-15.167969-115.003906 17.789063zm0 0" fill="#e6f7fe"/><path d="m337.6875 261.402344c-12.761719 5.960937-25.597656 9.78125-38.339844 11.785156v187.996094c0 6.144531 4.980469 11.128906 11.125 11.128906h27.214844zm0 0" fill="#d5f1fe"/><path d="m446.609375 330.816406v-29.859375c0-2.757812-2.238281-4.996093-4.996094-4.996093h-112.113281c-2.761719 0-4.996094 2.238281-4.996094 5v29.855468c0 2.757813 2.234375 4.996094 4.996094 4.996094h112.109375c2.761719 0 5-2.238281 5-4.996094zm0 0" fill="#11dfef"/><path d="m371.003906 330.816406v-29.859375c0-2.757812 2.234375-4.996093 4.996094-4.996093h-46.5c-2.761719 0-4.996094 2.238281-4.996094 4.996093v29.859375c0 2.757813 2.234375 4.996094 4.996094 4.996094h46.5c-2.761719 0-4.996094-2.238281-4.996094-4.996094zm0 0" fill="#0ac6e5"/><path d="m460.636719 133.597656h-22.316407c-2.105468 0-3.808593 1.707032-3.808593 3.808594 0 5.050781-4.132813 9.179688-9.179688 9.179688h-79.550781c-5.046875 0-9.179688-4.128907-9.179688-9.179688 0-2.101562-1.707031-3.808594-3.808593-3.808594h-22.320313c-6.144531 0-11.125 4.980469-11.125 11.128906v130.460938c19.109375-3.007812 38.4375-10.0625 57.410156-22.378906 50.769532-32.957032 90.460938-27.957032 115.007813-17.789063v-90.292969c0-6.148437-4.984375-11.128906-11.128906-11.128906zm0 0" fill="#00c82f"/><path d="m337.6875 141.71875c-.691406-1.285156-1.085938-2.753906-1.085938-4.3125 0-2.101562-1.707031-3.808594-3.808593-3.808594h-22.316407c-6.148437 0-11.128906 4.980469-11.128906 11.128906v130.460938c12.742188-2.003906 25.578125-5.820312 38.339844-11.785156zm0 0" fill="#02ad22"/><path d="m436.09375 420.3125h-102.785156c-4.117188 0-7.457032 3.339844-7.457032 7.457031 0 4.121094 3.339844 7.457031 7.457032 7.457031h89.792968c4.527344-4.792968 8.859376-9.769531 12.992188-14.914062zm0 0" fill="#11dfef"/><path d="m437.804688 404.210938h-104.496094c-4.117188 0-7.457032-3.339844-7.457032-7.457032 0-4.121094 3.339844-7.457031 7.457032-7.457031h104.496094c4.117187 0 7.457031 3.335937 7.457031 7.457031 0 4.117188-3.339844 7.457032-7.457031 7.457032zm0 0" fill="#11dfef"/><path d="m437.804688 373.195312h-104.496094c-4.117188 0-7.457032-3.339843-7.457032-7.457031 0-4.121093 3.339844-7.457031 7.457032-7.457031h104.496094c4.117187 0 7.457031 3.335938 7.457031 7.457031 0 4.117188-3.339844 7.457031-7.457031 7.457031zm0 0" fill="#11dfef"/><path d="m413.367188 31.632812h-52.671876c-4.140624 0-7.5-3.355468-7.5-7.5 0-4.140624 3.359376-7.5 7.5-7.5h52.671876c4.140624 0 7.5 3.359376 7.5 7.5 0 4.144532-3.359376 7.5-7.5 7.5zm0 0" fill="#aeaeff"/><path d="m323.019531 31.632812h-183.847656c-4.140625 0-7.5-3.355468-7.5-7.5 0-4.140624 3.359375-7.5 7.5-7.5h183.847656c4.140625 0 7.5 3.359376 7.5 7.5 0 4.144532-3.359375 7.5-7.5 7.5zm0 0" fill="#aeaeff"/><path d="m281.546875 24.132812c0-4.140624 3.359375-7.5 7.5-7.5h-149.875c-4.140625 0-7.5 3.359376-7.5 7.5 0 4.144532 3.359375 7.5 7.5 7.5h149.875c-4.140625 0-7.5-3.355468-7.5-7.5zm0 0" fill="#8181fc"/></svg>