<?xml version="1.0" encoding="iso-8859-1"?>
<!-- Generator: Adobe Illustrator 19.0.0, SVG Export Plug-In . SVG Version: 6.00 Build 0)  -->
<svg version="1.1" id="Capa_1" xmlns="http://www.w3.org/2000/svg" xmlns:xlink="http://www.w3.org/1999/xlink" x="0px" y="0px"
	 viewBox="0 0 511.999 511.999" style="enable-background:new 0 0 511.999 511.999;" xml:space="preserve">
<g>
	<path style="fill:#00B04B;" d="M56.032,170.81c-9.051-3.364-18.97,2.363-20.582,11.883c-9.075,53.588,6.068,106.652,38.274,146.836
		l89.15-55.137C143.767,227.75,105.918,189.351,56.032,170.81z"/>
	<path style="fill:#00B04B;" d="M335.416,182.693c-1.612-9.52-11.532-15.248-20.582-11.883
		c-49.887,18.541-87.735,56.94-106.842,103.582l89.15,55.137C329.348,289.346,344.49,236.281,335.416,182.693z"/>
</g>
<path style="fill:#28D05B;" d="M173.874,82.882c-90.696,103.002-86.843,260.148,11.559,358.55
	c98.402-98.402,102.255-255.548,11.559-358.55C190.874,75.935,179.991,75.935,173.874,82.882z"/>
<path style="fill:#00B04B;" d="M257.937,303.35c13.996-76.627-6.268-158.283-60.823-220.33c-6.16-7.006-17.075-7.136-23.234-0.129
	c-3.119,3.55-6.128,7.164-9.027,10.835c88.481,89.869,88.481,234.677,0,324.545c6.331,8.017,13.179,15.76,20.58,23.159
	c86.045,0,158.392-58.61,179.322-138.082H257.937V303.35z"/>
<path style="fill:#60F375;" d="M0,256c0,102.411,83.021,185.433,185.433,185.433C185.433,339.021,102.411,256,0,256z"/>
<path style="fill:#28D05B;" d="M185.433,441.432c0-10.541-0.893-20.872-2.583-30.933c-34.907-0.587-68.798-13.047-95.698-35.247
	c-12.497-10.314-30.684-9.148-41.789,2.262C79.361,416.671,129.504,441.432,185.433,441.432z"/>
<path style="fill:#596775;" d="M420.29,286.905h43.416c26.104,0,47.738-20.735,48.274-46.833
	c0.966-47.014-35.156-76.789-73.347-76.789h-34.964c18.689,0,36.226-14.412,36.226-37.087c0-33.296-26.354-55.63-55.03-55.63
	h-75.368c-28.698,0-55.512,22.392-55.025,56.963c0.28,19.821,16.401,35.753,36.224,35.753h47.448
	c-38.445,0-74.014,30.054-73.367,75.951c0.373,26.427,21.869,47.671,48.299,47.671h-18.397c-47.829,0-92.522,37.32-91.709,94.938
	c0.467,33.034,27.336,59.589,60.374,59.589h188.287c32.63,0,59.672-25.919,60.343-58.542
	C513.183,324.122,468.03,286.905,420.29,286.905z"/>
<g>
	<path style="fill:#35404A;" d="M290.696,163.283c7.003,0,109.797,0,112.973,0c18.689,0,36.226-14.412,36.226-37.087
		c0-11.354-3.069-21.429-8.244-29.783c-13.255,3.663-22.662,15.845-22.662,29.783c0,5.579-3.721,6.181-5.321,6.181H290.695
		c-12.07,0-22.879,7.004-27.931,17.731C269.411,158.158,279.456,163.283,290.696,163.283z"/>
	<path style="fill:#35404A;" d="M463.351,201.982c11.761,8.26,18.058,21.562,17.73,37.454c-0.188,9.133-7.983,16.563-17.376,16.563
		H295.674c-8.563,0-16.691,3.545-22.528,9.766c8.698,12.767,23.34,21.139,39.929,21.139c7.671,0,146.503,0,150.631,0
		c26.104,0,47.738-20.735,48.274-46.833c0.847-41.183-26.765-69.133-59.297-75.435C446.967,178.036,451.301,193.52,463.351,201.982z
		"/>
	<path style="fill:#35404A;" d="M468.062,300.201c-9.762,11.255-10.099,28.104-0.606,39.746
		c9.246,11.339,13.955,25.969,13.619,42.306c-0.32,15.59-13.529,28.272-29.446,28.272H244.165c-9.609,0-18.701,4.528-24.534,12.143
		c11,11.558,26.515,18.763,43.711,18.763h188.289c32.63,0,59.672-25.919,60.343-58.542
		C512.755,344.922,494.18,315.953,468.062,300.201z"/>
	<circle style="fill:#35404A;" cx="344.42" cy="202.945" r="7.726"/>
	<circle style="fill:#35404A;" cx="385.638" cy="223.549" r="7.726"/>
	<circle style="fill:#35404A;" cx="354.722" cy="244.153" r="7.726"/>
	<circle style="fill:#35404A;" cx="251.704" cy="378.086" r="7.726"/>
	<circle style="fill:#35404A;" cx="292.911" cy="326.577" r="7.726"/>
	<circle style="fill:#35404A;" cx="395.94" cy="357.483" r="7.726"/>
	<circle style="fill:#35404A;" cx="385.638" cy="120.531" r="7.726"/>
	<circle style="fill:#35404A;" cx="312.485" cy="99.917" r="7.726"/>
	<circle style="fill:#35404A;" cx="436.117" cy="192.644" r="7.726"/>
</g>
<g>
</g>
<g>
</g>
<g>
</g>
<g>
</g>
<g>
</g>
<g>
</g>
<g>
</g>
<g>
</g>
<g>
</g>
<g>
</g>
<g>
</g>
<g>
</g>
<g>
</g>
<g>
</g>
<g>
</g>
</svg>
